<svg width="44" height="55" viewBox="0 0 44 55" fill="none" xmlns="http://www.w3.org/2000/svg">
<path d="M29.9604 39.1575C38.1396 40.7012 43.9354 44.6554 43.9354 49.2866V54.7033H0.602051V49.2866C0.602051 44.6554 6.39788 40.7012 14.5771 39.1575L22.2687 51.995L29.9604 39.1575ZM11.4354 16.7866H33.1021V22.2033C33.1021 25.0765 31.9607 27.832 29.929 29.8636C27.8974 31.8953 25.1419 33.0366 22.2687 33.0366C19.3955 33.0366 16.64 31.8953 14.6084 29.8636C12.5767 27.832 11.4354 25.0765 11.4354 22.2033V16.7866ZM11.4354 14.0783L12.5458 2.97412C12.6812 1.59287 13.8458 0.536621 15.2541 0.536621H29.3104C30.6916 0.536621 31.8562 1.59287 31.9916 2.97412L33.1021 14.0783H11.4354ZM22.2687 3.24495H19.5604V5.95329H16.8521V8.66162H19.5604V11.37H22.2687V8.66162H24.9771V5.95329H22.2687V3.24495Z" fill="url(#paint0_linear_2332_3443)"/>
<defs>
<linearGradient id="paint0_linear_2332_3443" x1="22.2687" y1="0.536621" x2="22.2687" y2="54.7033" gradientUnits="userSpaceOnUse">
<stop stop-color="#F8B532"/>
<stop offset="1" stop-color="#E73C34"/>
</linearGradient>
</defs>
</svg>
