<svg width="66" height="66" viewBox="0 0 66 66" fill="none" xmlns="http://www.w3.org/2000/svg">
<path d="M38.3614 43.7445L41.9171 48.4853C39.2234 53.6572 33.8091 57.2128 27.5868 57.2128C18.6708 57.2128 11.4248 49.9668 11.4248 41.0508C11.4248 34.5052 15.3576 28.9293 20.9873 26.3704L21.553 32.2156C18.7246 34.155 16.8121 37.3605 16.8121 41.0508C16.8121 47.0038 21.6338 51.8255 27.5868 51.8255C32.597 51.8255 36.7722 48.3776 37.9843 43.7445H38.3614ZM53.3112 44.0408L49.9442 45.7108L42.4019 35.6635H30.038L29.4993 30.2762H38.3614V24.8888H28.9336L28.1255 16.8079C30.8461 16.4846 32.9741 14.2219 32.9741 11.4205C32.9741 8.4575 30.5767 6.0332 27.5868 6.0332C24.5968 6.0332 22.1995 8.4575 22.1995 11.4205C22.1995 11.5013 22.1995 11.6091 22.1995 11.6899L25.1625 41.0508H39.7083L48.328 52.5527L55.7355 48.8624L53.3112 44.0408Z" fill="url(#paint0_linear_2332_3436)"/>
<defs>
<linearGradient id="paint0_linear_2332_3436" x1="33.5802" y1="6.0332" x2="33.5802" y2="57.2128" gradientUnits="userSpaceOnUse">
<stop offset="0.114583" stop-color="#59C4D7"/>
<stop offset="0.427083" stop-color="#248B9D"/>
<stop offset="1" stop-color="#59C4D7"/>
</linearGradient>
</defs>
</svg>
