<svg width="54" height="36" viewBox="0 0 54 36" fill="none" xmlns="http://www.w3.org/2000/svg">
<path d="M0 0.111084V32.435H27.7986C27.206 30.6303 26.9366 28.8255 26.9366 27.0477H10.7746C10.7746 24.0847 8.37729 21.6604 5.38732 21.6604V10.8857C8.37729 10.8857 10.7746 8.48837 10.7746 5.49841H37.7113C37.7113 8.48837 40.1356 10.8857 43.0986 10.8857V11.0474C44.9033 11.0474 46.7081 11.3706 48.4859 11.9632V0.111084H0ZM24.243 8.19207C19.6637 8.27288 16.162 11.6938 16.162 16.2731C16.162 20.8523 19.6637 24.1924 24.243 24.354C25.2665 24.354 26.3171 24.1386 27.3137 23.7345C28.041 20.7715 29.2532 17.9701 32.2431 15.2225C31.9199 11.64 28.5259 8.11126 24.243 8.19207ZM50.1829 17.0003L39.7584 27.5056L36.122 23.8153L32.3239 27.6403L39.7315 35.1287L53.9541 20.7984L50.1829 17.0003Z" fill="url(#paint0_linear_2332_3397)"/>
<defs>
<linearGradient id="paint0_linear_2332_3397" x1="26.977" y1="0.111084" x2="26.977" y2="35.1287" gradientUnits="userSpaceOnUse">
<stop stop-color="#F23945"/>
<stop offset="1" stop-color="#960E7A"/>
</linearGradient>
</defs>
</svg>
