<svg width="408" height="408" viewBox="0 0 408 408" fill="none" xmlns="http://www.w3.org/2000/svg">
<g clip-path="url(#clip0_710_17173)">
<path d="M204 408C316.666 408 408 316.666 408 204C408 91.3339 316.666 0 204 0C91.3339 0 0 91.3339 0 204C0 316.666 91.3339 408 204 408Z" fill="url(#paint0_linear_710_17173)"/>
<path d="M406.846 230.751C384.364 220.929 355.094 216.227 336.815 223.075C319.661 229.506 322.418 242.264 304.817 247.532C276.41 256.035 256.73 226.563 214.464 227.964C176.855 229.208 163.821 253.486 135.408 247.532C117.687 243.821 114.334 232.614 101.718 224.707C80.585 211.458 40.0101 211.6 1 219.178C4.5545 270.223 26.88 316.096 61.1284 349.935C99.6541 357.058 141.57 360.866 182.466 359.346C254.323 356.678 327.001 337.438 376.503 314.524C392.345 289.739 402.979 261.303 406.854 230.751H406.846Z" fill="url(#paint1_linear_710_17173)"/>
<path d="M346.977 116.004H297.646C294.762 116.004 292.125 114.96 290.083 113.224C287.564 111.078 285.962 107.889 285.962 104.319C285.962 101.093 287.266 98.1714 289.382 96.0551C291.499 93.9388 294.42 92.6348 297.646 92.6348H346.977C350.204 92.6348 353.125 93.9388 355.241 96.0551C357.357 98.1714 358.661 101.093 358.661 104.319C358.661 107.546 357.357 110.467 355.241 112.583C353.125 114.699 350.204 116.004 346.977 116.004Z" fill="#EBF4D8"/>
<path d="M335.279 100.56C337.569 91.0581 331.722 81.4985 322.22 79.2084C312.718 76.9184 303.158 82.765 300.868 92.2673C298.578 101.77 304.425 111.329 313.927 113.619C323.429 115.909 332.989 110.063 335.279 100.56Z" fill="#EBF4D8"/>
<path d="M117.999 87.715H45.6046C40.8727 87.715 36.5805 85.7924 33.4805 82.6925C30.3806 79.5925 28.458 75.3003 28.458 70.5684C28.458 67.1928 29.4342 64.0407 31.1183 61.3878C34.1586 56.5963 39.509 53.4219 45.6046 53.4219H117.999C122.731 53.4219 127.023 55.3444 130.123 58.4444C133.223 61.5443 135.145 65.8365 135.145 70.5684C135.145 74.9873 133.476 79.0113 130.734 82.0516C127.597 85.5316 123.051 87.715 117.999 87.715Z" fill="white"/>
<path d="M75.5677 84.9421C89.9144 84.9421 101.545 73.3118 101.545 58.9652C101.545 44.6185 89.9144 32.9883 75.5677 32.9883C61.2211 32.9883 49.5908 44.6185 49.5908 58.9652C49.5908 73.3118 61.2211 84.9421 75.5677 84.9421Z" fill="white"/>
<path d="M353.393 362.007C353.393 363.773 293.287 365.204 219.142 365.204C144.997 365.204 84.8906 363.773 84.8906 362.007C84.8906 360.241 144.997 358.811 219.142 358.811C293.287 358.811 353.393 360.241 353.393 362.007Z" fill="url(#paint2_radial_710_17173)"/>
<path d="M301.224 289.234C300.657 292.066 304.055 292.632 304.622 296.589C305.188 300.554 303.489 301.679 304.055 303.944C304.622 306.209 308.02 306.776 308.578 312.432C309.145 318.088 306.879 317.521 307.446 320.919C308.012 324.317 311.41 324.317 311.969 327.142C312.528 329.966 312.535 333.93 313.668 337.328C314.801 340.726 318.191 345.816 319.89 345.816C321.589 345.816 326.113 336.195 324.98 333.371C323.847 330.547 322.148 329.973 322.148 327.715C322.148 325.457 324.414 319.794 323.847 315.83C323.281 311.865 318.191 310.174 317.625 307.342C317.059 304.51 318.758 297.156 314.793 293.765C310.829 290.374 301.782 286.41 301.216 289.242L301.224 289.234Z" fill="#DEDEDE"/>
<path d="M319.629 344.847C319.473 344.847 319.346 344.72 319.346 344.564C319.346 344.489 319.294 337.134 317.14 334.981C314.957 332.797 313.705 326.106 313.094 313.296C312.542 301.656 304.196 292.066 304.114 291.969C304.01 291.85 304.025 291.671 304.137 291.567C304.256 291.462 304.435 291.477 304.539 291.589C304.621 291.686 313.101 301.418 313.66 313.266C314.256 325.755 315.486 332.529 317.535 334.578C319.853 336.896 319.905 344.243 319.905 344.556C319.905 344.713 319.778 344.839 319.622 344.839L319.629 344.847Z" fill="#98999A"/>
<path d="M353.013 297.796C355.01 299.793 348.49 300.628 347.923 304.585C347.357 308.542 347.357 310.241 345.092 312.506C342.826 314.771 339.436 315.338 340.002 318.728C340.569 322.126 341.701 325.517 340.002 327.216C338.303 328.915 334.346 328.915 333.214 331.739C332.081 334.563 332.647 337.961 330.382 340.793C328.117 343.625 324.726 349.28 321.894 348.148C319.063 347.015 320.762 334.004 321.894 331.739C323.027 329.474 324.16 327.775 324.16 326.083C324.16 324.392 323.593 321.56 324.726 318.728C325.859 315.896 332.081 314.764 332.647 313.072C333.214 311.381 333.78 302.319 337.171 300.061C340.561 297.804 349.615 294.406 353.013 297.796Z" fill="#BABABA"/>
<path d="M322.767 347.187C322.714 347.187 322.67 347.172 322.618 347.149C322.483 347.067 322.439 346.896 322.521 346.762C322.543 346.725 324.808 342.932 325.285 341.017C325.412 340.525 325.561 339.772 325.732 338.908C326.358 335.763 327.305 331.024 328.758 329.563C330.867 327.454 334.242 320.986 336.604 312.715C339.518 302.521 349.146 299.54 349.243 299.51C349.392 299.465 349.548 299.547 349.593 299.704C349.638 299.853 349.556 300.009 349.407 300.054C349.31 300.084 339.973 302.983 337.148 312.871C334.756 321.24 331.321 327.805 329.153 329.966C327.819 331.299 326.858 336.128 326.284 339.02C326.112 339.891 325.963 340.644 325.837 341.151C325.337 343.148 323.102 346.889 323.005 347.045C322.953 347.135 322.856 347.179 322.759 347.179L322.767 347.187Z" fill="#98999A"/>
<path d="M322.051 304.272C315.263 304.838 317.528 325.204 317.528 325.204C319.227 342.746 321.492 350.667 323.184 351.233C324.875 351.8 328.273 326.337 328.273 320.115C328.273 320.115 328.84 303.706 322.051 304.272Z" fill="#EDEDED"/>
<path d="M322.893 348.41C322.893 348.41 322.871 348.41 322.856 348.41C322.7 348.388 322.588 348.253 322.61 348.097C324.846 329.669 322.074 306.523 322.044 306.292C322.022 306.136 322.133 305.994 322.29 305.979C322.439 305.957 322.588 306.069 322.603 306.225C322.633 306.456 325.412 329.669 323.169 348.164C323.154 348.306 323.027 348.41 322.886 348.41H322.893Z" fill="white"/>
<path d="M331.329 361.286H314.116C313.542 361.286 313.057 360.936 312.99 360.474L310.487 342.62C310.375 341.815 311.001 341.1 311.806 341.1H333.632C334.444 341.1 335.07 341.815 334.958 342.62L332.454 360.474C332.387 360.936 331.903 361.286 331.329 361.286Z" fill="#D0DAED"/>
<path d="M61.264 123.4H83.584V128.92H68.176V136.6H81.904V142.12H68.176V151.48H83.584V157H61.264V123.4ZM87.7259 139.384C87.7259 136.184 87.6619 134.056 87.5339 133H92.9099C93.0699 134.28 93.1499 135.672 93.1499 137.176H93.2459C93.7579 135.736 94.6859 134.6 96.0299 133.768C97.3739 132.936 98.9419 132.52 100.734 132.52C102.462 132.52 103.934 132.904 105.15 133.672C106.366 134.408 107.182 135.432 107.598 136.744C108.238 135.432 109.214 134.408 110.526 133.672C111.838 132.904 113.31 132.52 114.942 132.52C117.598 132.52 119.678 133.384 121.182 135.112C122.718 136.808 123.486 139.16 123.486 142.168V157H117.39V142.84C117.39 141.144 117.022 139.832 116.286 138.904C115.55 137.944 114.542 137.464 113.262 137.464C111.854 137.464 110.718 137.96 109.854 138.952C109.022 139.912 108.606 141.224 108.606 142.888V157H102.558V143.032C102.558 141.272 102.206 139.912 101.502 138.952C100.798 137.96 99.8059 137.464 98.5259 137.464C97.1499 137.464 96.0139 137.992 95.1179 139.048C94.2539 140.072 93.8219 141.4 93.8219 143.032V157H87.7259V139.384ZM128.56 139.384C128.56 136.792 128.496 134.664 128.368 133H134.128C134.224 133.96 134.272 135.016 134.272 136.168H134.368C135.168 135.016 136.208 134.12 137.488 133.48C138.768 132.84 140.192 132.52 141.76 132.52C144.8 132.52 147.2 133.64 148.96 135.88C150.72 138.12 151.6 141.176 151.6 145.048C151.6 148.92 150.704 151.96 148.912 154.168C147.152 156.376 144.704 157.48 141.568 157.48C140.032 157.48 138.672 157.224 137.488 156.712C136.304 156.2 135.424 155.48 134.848 154.552H134.704V168.616H128.56V139.384ZM140.224 152.92C141.92 152.92 143.216 152.232 144.112 150.856C145.008 149.448 145.456 147.448 145.456 144.856C145.456 139.768 143.744 137.224 140.32 137.224C138.656 137.224 137.296 137.72 136.24 138.712C135.216 139.672 134.704 140.952 134.704 142.552V147.496C134.704 149.032 135.232 150.328 136.288 151.384C137.344 152.408 138.656 152.92 140.224 152.92ZM165.924 157.48C163.46 157.48 161.54 156.808 160.164 155.464C158.788 154.12 158.1 152.232 158.1 149.8V137.56H153.732V133H158.1V126.808L164.052 125.08H164.244V133H171.204V137.56H164.244V148.888C164.244 150.264 164.564 151.272 165.204 151.912C165.844 152.552 166.82 152.872 168.132 152.872C169.38 152.872 170.548 152.68 171.636 152.296L171.924 156.472C170.484 157.144 168.484 157.48 165.924 157.48ZM196.929 133L187.761 158.104C186.769 160.792 185.393 162.808 183.633 164.152C181.905 165.528 179.825 166.216 177.393 166.216C176.113 166.216 174.801 166.04 173.457 165.688V160.84C173.841 160.968 174.321 161.08 174.896 161.176C175.473 161.272 175.985 161.32 176.433 161.32C177.841 161.32 179.041 160.824 180.033 159.832C181.057 158.872 181.969 157.336 182.769 155.224L173.841 133H180.368L185.648 148.36L190.401 133H196.929ZM221.902 157.48C219.374 157.48 217.086 156.968 215.038 155.944C213.022 154.92 211.374 153.448 210.094 151.528L214.078 147.688C215.134 148.936 216.414 149.96 217.918 150.76C219.422 151.56 220.83 151.96 222.142 151.96C223.614 151.96 224.798 151.624 225.694 150.952C226.59 150.28 227.038 149.4 227.038 148.312C227.038 147.512 226.894 146.856 226.606 146.344C226.318 145.832 225.774 145.32 224.974 144.808C224.174 144.264 222.862 143.544 221.038 142.648C218.638 141.464 216.75 140.36 215.374 139.336C213.998 138.312 212.974 137.208 212.302 136.024C211.662 134.808 211.342 133.4 211.342 131.8C211.342 130.04 211.806 128.488 212.734 127.144C213.662 125.8 214.974 124.76 216.67 124.024C218.366 123.288 220.318 122.92 222.526 122.92C224.958 122.92 227.102 123.384 228.958 124.312C230.846 125.24 232.222 126.52 233.086 128.152L228.718 131.416C227.118 129.432 225.15 128.44 222.814 128.44C221.342 128.44 220.206 128.728 219.406 129.304C218.606 129.88 218.206 130.696 218.206 131.752C218.206 132.392 218.398 132.968 218.782 133.48C219.198 133.992 219.934 134.552 220.99 135.16C222.046 135.768 223.63 136.568 225.742 137.56C227.79 138.52 229.39 139.48 230.542 140.44C231.726 141.4 232.574 142.472 233.086 143.656C233.598 144.84 233.854 146.248 233.854 147.88C233.854 149.8 233.358 151.496 232.366 152.968C231.406 154.408 230.014 155.528 228.19 156.328C226.398 157.096 224.302 157.48 221.902 157.48ZM247.956 157.48C245.492 157.48 243.572 156.808 242.196 155.464C240.82 154.12 240.132 152.232 240.132 149.8V137.56H235.764V133H240.132V126.808L246.084 125.08H246.276V133H253.236V137.56H246.276V148.888C246.276 150.264 246.596 151.272 247.236 151.912C247.876 152.552 248.852 152.872 250.164 152.872C251.412 152.872 252.58 152.68 253.668 152.296L253.956 156.472C252.516 157.144 250.516 157.48 247.956 157.48ZM264.992 157.48C263.424 157.48 262.016 157.16 260.768 156.52C259.52 155.848 258.544 154.936 257.84 153.784C257.136 152.6 256.784 151.288 256.784 149.848C256.784 147.384 257.76 145.496 259.712 144.184C261.664 142.872 264.448 142.216 268.064 142.216H271.808V141.208C271.808 139.928 271.424 138.952 270.656 138.28C269.92 137.576 268.864 137.224 267.488 137.224C266.048 137.224 264.672 137.48 263.36 137.992C262.048 138.504 260.976 139.208 260.144 140.104L257.456 136.552C258.768 135.304 260.32 134.328 262.112 133.624C263.904 132.888 265.76 132.52 267.68 132.52C270.88 132.52 273.392 133.272 275.216 134.776C277.04 136.28 277.952 138.36 277.952 141.016V151.96C277.952 152.696 278 153.56 278.096 154.552C278.224 155.544 278.368 156.36 278.528 157H273.104C272.912 156.584 272.768 156.184 272.672 155.8C272.576 155.384 272.496 154.824 272.432 154.12H272.336C270.512 156.36 268.064 157.48 264.992 157.48ZM266.48 152.872C268.016 152.872 269.28 152.488 270.272 151.72C271.296 150.92 271.808 149.912 271.808 148.696V146.296H267.872C266.24 146.296 264.976 146.6 264.08 147.208C263.216 147.816 262.784 148.696 262.784 149.848C262.784 150.808 263.104 151.56 263.744 152.104C264.416 152.616 265.328 152.872 266.48 152.872ZM293.518 157.48C291.054 157.48 289.134 156.808 287.758 155.464C286.382 154.12 285.694 152.232 285.694 149.8V137.56H281.326V133H285.694V126.808L291.646 125.08H291.838V133H298.798V137.56H291.838V148.888C291.838 150.264 292.158 151.272 292.798 151.912C293.438 152.552 294.414 152.872 295.726 152.872C296.974 152.872 298.142 152.68 299.23 152.296L299.518 156.472C298.078 157.144 296.078 157.48 293.518 157.48ZM325.434 147.256H308.73C309.242 150.648 311.21 152.344 314.634 152.344C316.042 152.344 317.258 152.104 318.282 151.624C319.338 151.144 320.362 150.344 321.354 149.224L324.666 152.392C323.738 153.928 322.33 155.16 320.442 156.088C318.586 157.016 316.538 157.48 314.298 157.48C310.554 157.48 307.642 156.392 305.562 154.216C303.482 152.008 302.442 148.968 302.442 145.096C302.442 141.192 303.482 138.12 305.562 135.88C307.674 133.64 310.57 132.52 314.25 132.52C317.77 132.52 320.506 133.624 322.458 135.832C324.442 138.04 325.434 141.112 325.434 145.048V147.256ZM319.434 142.792C319.434 141.16 318.954 139.88 317.994 138.952C317.066 137.992 315.77 137.512 314.106 137.512C312.602 137.512 311.386 138.008 310.458 139C309.53 139.96 308.938 141.32 308.682 143.08H319.434V142.792ZM337.987 157.48C335.907 157.48 334.067 157.064 332.467 156.232C330.899 155.4 329.795 154.296 329.155 152.92L332.947 150.28C333.523 151.08 334.259 151.72 335.155 152.2C336.051 152.68 336.963 152.92 337.891 152.92C338.979 152.92 339.875 152.648 340.579 152.104C341.283 151.528 341.635 150.824 341.635 149.992C341.635 149.32 341.379 148.792 340.867 148.408C340.355 147.992 339.267 147.464 337.603 146.824C334.691 145.704 332.643 144.568 331.459 143.416C330.275 142.264 329.683 140.84 329.683 139.144C329.683 137.16 330.483 135.56 332.083 134.344C333.715 133.128 335.875 132.52 338.563 132.52C340.355 132.52 341.971 132.872 343.411 133.576C344.851 134.248 346.019 135.224 346.915 136.504L343.363 139.144C342.243 137.768 340.723 137.08 338.803 137.08C337.843 137.08 337.091 137.256 336.547 137.608C336.035 137.928 335.779 138.408 335.779 139.048C335.779 139.496 335.891 139.864 336.115 140.152C336.339 140.44 336.771 140.744 337.411 141.064C338.051 141.384 339.075 141.816 340.483 142.36C342.371 143.096 343.827 143.816 344.851 144.52C345.907 145.192 346.643 145.944 347.059 146.776C347.507 147.576 347.731 148.552 347.731 149.704C347.731 151.24 347.315 152.6 346.483 153.784C345.683 154.936 344.547 155.848 343.075 156.52C341.603 157.16 339.907 157.48 337.987 157.48Z" fill="#1C4651"/>
<path d="M22.584 192.432C22.584 191.856 22.728 191.336 23.016 190.872C23.32 190.408 23.736 190.056 24.264 189.816C23.752 189.672 22.928 189.528 21.792 189.384C21.808 188.312 22.08 187.368 22.608 186.552C23.136 185.72 23.872 185.08 24.816 184.632C25.76 184.168 26.84 183.936 28.056 183.936C29.192 183.936 30.192 184.144 31.056 184.56C31.936 184.976 32.616 185.56 33.096 186.312C33.576 187.048 33.816 187.904 33.816 188.88V198H30.744V189.216C30.744 188.368 30.472 187.68 29.928 187.152C29.4 186.608 28.696 186.336 27.816 186.336C27.08 186.336 26.408 186.496 25.8 186.816C25.208 187.136 24.808 187.552 24.6 188.064C25.128 188.176 25.64 188.32 26.136 188.496C26.648 188.672 27.064 188.864 27.384 189.072V189.936C26.824 190.144 26.392 190.448 26.088 190.848C25.8 191.248 25.656 191.728 25.656 192.288V198H22.584V192.432ZM40.4803 186.336C40.1283 186.336 39.8163 186.432 39.5443 186.624C39.2883 186.816 39.1523 187.064 39.1363 187.368C41.0883 187.544 42.6403 187.92 43.7923 188.496C44.9443 189.056 45.5203 189.744 45.5203 190.56V195.432C45.5203 196.264 45.2403 196.944 44.6803 197.472C44.1363 197.984 43.4243 198.24 42.5443 198.24C41.7123 198.24 41.0323 198 40.5043 197.52C39.9763 197.024 39.7123 196.4 39.7123 195.648C39.7123 194.88 39.9523 194.264 40.4323 193.8C40.9123 193.32 41.5443 193.08 42.3283 193.08H42.4483V191.064C42.4483 190.6 41.7603 190.2 40.3843 189.864C39.0243 189.512 37.5283 189.296 35.8963 189.216C35.9123 187.552 36.2803 186.256 37.0003 185.328C37.7203 184.4 38.6963 183.936 39.9283 183.936C40.3603 183.936 40.7363 183.976 41.0563 184.056C41.3923 184.12 41.7523 184.216 42.1363 184.344C42.3603 184.424 42.5843 184.496 42.8083 184.56C43.0483 184.608 43.2643 184.632 43.4563 184.632C43.7123 184.632 43.9363 184.56 44.1283 184.416C44.3203 184.256 44.4563 184.056 44.5363 183.816L46.6483 184.464C46.4403 185.296 46.0963 185.944 45.6163 186.408C45.1523 186.872 44.6163 187.104 44.0083 187.104C43.7363 187.104 43.4803 187.072 43.2403 187.008C43.0003 186.944 42.6803 186.848 42.2803 186.72C41.5123 186.464 40.9123 186.336 40.4803 186.336ZM42.3043 196.728C42.6243 196.728 42.8803 196.632 43.0723 196.44C43.2803 196.232 43.3843 195.968 43.3843 195.648C43.3843 195.328 43.2803 195.072 43.0723 194.88C42.8803 194.672 42.6243 194.568 42.3043 194.568C42.0003 194.568 41.7443 194.672 41.5363 194.88C41.3443 195.072 41.2483 195.328 41.2483 195.648C41.2483 195.968 41.3443 196.232 41.5363 196.44C41.7443 196.632 42.0003 196.728 42.3043 196.728ZM42.8207 203.952C42.6927 204 42.4607 204.024 42.1247 204.024C41.4687 204.024 40.9407 203.808 40.5407 203.376C40.1247 202.96 39.9167 202.416 39.9167 201.744C39.9167 201.056 40.1567 200.496 40.6367 200.064C41.1007 199.648 41.7247 199.44 42.5087 199.44C43.3567 199.44 44.0287 199.648 44.5247 200.064C45.0207 200.48 45.2687 201.024 45.2687 201.696V206.472H42.8207V203.952ZM42.1967 202.68C42.4687 202.68 42.7007 202.592 42.8927 202.416C43.0687 202.24 43.1567 202.016 43.1567 201.744C43.1567 201.456 43.0687 201.224 42.8927 201.048C42.7007 200.872 42.4687 200.784 42.1967 200.784C41.9247 200.784 41.7007 200.872 41.5247 201.048C41.3327 201.224 41.2367 201.456 41.2367 201.744C41.2367 202.016 41.3327 202.24 41.5247 202.416C41.7007 202.592 41.9247 202.68 42.1967 202.68ZM65.8014 193.152C66.3294 193.376 66.7294 193.688 67.0014 194.088C67.2894 194.472 67.4334 194.92 67.4334 195.432C67.4334 196.296 67.1774 196.984 66.6654 197.496C66.1694 197.992 65.4974 198.24 64.6494 198.24C63.8174 198.24 63.1534 198.008 62.6574 197.544C62.1614 197.064 61.8974 196.424 61.8654 195.624C61.4654 195.832 61.0654 196.144 60.6654 196.56C60.2654 196.976 59.9054 197.456 59.5854 198H56.7054V189.192C56.7054 188.312 56.4654 187.616 55.9854 187.104C55.5214 186.592 54.8574 186.336 53.9934 186.336C53.2414 186.336 52.5854 186.496 52.0254 186.816C51.4654 187.12 51.0814 187.536 50.8734 188.064C52.0734 188.32 53.0014 188.656 53.6574 189.072V189.936C53.1134 190.144 52.6894 190.448 52.3854 190.848C52.0814 191.248 51.9294 191.728 51.9294 192.288V193.08H52.0494C52.8174 193.08 53.4414 193.32 53.9214 193.8C54.4174 194.28 54.6654 194.896 54.6654 195.648C54.6654 196.416 54.4014 197.04 53.8734 197.52C53.3454 198 52.6654 198.24 51.8334 198.24C50.9534 198.24 50.2334 197.984 49.6734 197.472C49.1294 196.944 48.8574 196.264 48.8574 195.432V192.432C48.8574 191.856 49.0014 191.336 49.2894 190.872C49.5934 190.408 50.0094 190.056 50.5374 189.816C50.2174 189.72 49.8334 189.64 49.3854 189.576C48.9534 189.496 48.5134 189.432 48.0654 189.384C48.0814 188.312 48.3454 187.368 48.8574 186.552C49.3694 185.72 50.0814 185.08 50.9934 184.632C51.9214 184.168 52.9854 183.936 54.1854 183.936C55.3054 183.936 56.2814 184.144 57.1134 184.56C57.9614 184.96 58.6094 185.528 59.0574 186.264C59.5214 187 59.7534 187.864 59.7534 188.856V194.856C59.9774 194.536 60.2654 194.232 60.6174 193.944C60.9854 193.656 61.3534 193.424 61.7214 193.248C62.4094 192.896 62.9134 192.576 63.2334 192.288C63.5694 192 63.7374 191.616 63.7374 191.136V184.152H66.7854V191.064C66.7854 191.528 66.6974 191.944 66.5214 192.312C66.3454 192.68 66.1054 192.96 65.8014 193.152ZM64.6494 196.728C64.9534 196.728 65.2014 196.632 65.3934 196.44C65.6014 196.232 65.7054 195.968 65.7054 195.648C65.7054 195.328 65.6014 195.072 65.3934 194.88C65.2014 194.672 64.9534 194.568 64.6494 194.568C64.3294 194.568 64.0654 194.672 63.8574 194.88C63.6654 195.072 63.5694 195.328 63.5694 195.648C63.5694 195.968 63.6654 196.232 63.8574 196.44C64.0654 196.632 64.3294 196.728 64.6494 196.728ZM52.0494 194.592C51.7294 194.592 51.4654 194.696 51.2574 194.904C51.0654 195.096 50.9694 195.344 50.9694 195.648C50.9694 195.968 51.0654 196.232 51.2574 196.44C51.4654 196.632 51.7294 196.728 52.0494 196.728C52.3694 196.728 52.6254 196.632 52.8174 196.44C53.0254 196.232 53.1294 195.968 53.1294 195.648C53.1294 195.344 53.0254 195.096 52.8174 194.904C52.6254 194.696 52.3694 194.592 52.0494 194.592ZM76.1404 188.208C76.1404 187.616 75.9564 187.16 75.5884 186.84C75.2204 186.504 74.7164 186.336 74.0764 186.336C73.3564 186.336 72.7964 186.544 72.3964 186.96C71.9964 187.36 71.7964 187.92 71.7964 188.64H68.8444C68.8444 187.168 69.3084 186.016 70.2364 185.184C71.1644 184.352 72.4444 183.936 74.0764 183.936C75.6764 183.936 76.9244 184.296 77.8204 185.016C78.7324 185.736 79.1884 186.736 79.1884 188.016V198H76.1404V188.208ZM96.1603 183.936C97.2963 184.096 98.2003 184.608 98.8723 185.472C99.5443 186.336 99.8803 187.408 99.8803 188.688V198H96.8083V188.688C96.8083 188.096 96.7363 187.624 96.5923 187.272C96.4643 186.904 96.2403 186.608 95.9203 186.384L93.6403 187.776L91.1443 186.264C90.7443 186.536 90.4483 186.896 90.2563 187.344C90.0803 187.792 89.9923 188.376 89.9923 189.096C89.9923 189.464 90.0323 189.84 90.1123 190.224C90.1923 190.608 90.3123 191.088 90.4723 191.664C90.6323 192.24 90.7523 192.704 90.8323 193.056C90.9123 193.408 90.9523 193.752 90.9523 194.088V194.328C91.1443 194.104 91.5203 193.76 92.0803 193.296L92.7043 192.768C92.2563 192.704 91.8883 192.496 91.6003 192.144C91.3283 191.792 91.1923 191.36 91.1923 190.848C91.1923 190.208 91.4163 189.688 91.8643 189.288C92.3123 188.872 92.8803 188.664 93.5683 188.664C94.2563 188.664 94.8083 188.872 95.2243 189.288C95.6563 189.704 95.8723 190.248 95.8723 190.92C95.8723 191.512 95.6963 192.032 95.3443 192.48C94.9923 192.912 94.4403 193.448 93.6883 194.088C92.8723 194.776 92.2403 195.408 91.7923 195.984C91.3603 196.544 91.1203 197.216 91.0723 198H88.0963V194.448C88.0963 194.176 88.0323 193.784 87.9043 193.272C87.7763 192.76 87.6963 192.448 87.6643 192.336C87.4563 191.552 87.2963 190.928 87.1843 190.464C87.0883 189.984 87.0403 189.552 87.0403 189.168C87.0403 187.856 87.3843 186.728 88.0723 185.784C88.7763 184.84 89.8323 184.224 91.2403 183.936L93.6643 185.592L96.1603 183.936ZM92.5363 190.848C92.5363 191.136 92.6243 191.368 92.8003 191.544C92.9763 191.72 93.2163 191.808 93.5203 191.808C93.8083 191.808 94.0403 191.72 94.2163 191.544C94.3923 191.368 94.4803 191.136 94.4803 190.848C94.4803 190.56 94.3923 190.328 94.2163 190.152C94.0403 189.96 93.8083 189.864 93.5203 189.864C93.2163 189.864 92.9763 189.96 92.8003 190.152C92.6243 190.328 92.5363 190.56 92.5363 190.848ZM106.551 186.336C106.199 186.336 105.887 186.432 105.615 186.624C105.359 186.816 105.223 187.064 105.207 187.368C107.159 187.544 108.711 187.92 109.863 188.496C111.015 189.056 111.591 189.744 111.591 190.56V195.432C111.591 196.264 111.311 196.944 110.751 197.472C110.207 197.984 109.495 198.24 108.615 198.24C107.783 198.24 107.103 198 106.575 197.52C106.047 197.024 105.783 196.4 105.783 195.648C105.783 194.88 106.023 194.264 106.503 193.8C106.983 193.32 107.615 193.08 108.399 193.08H108.519V191.064C108.519 190.6 107.831 190.2 106.455 189.864C105.095 189.512 103.599 189.296 101.967 189.216C101.983 187.552 102.351 186.256 103.071 185.328C103.791 184.4 104.767 183.936 105.999 183.936C106.431 183.936 106.807 183.976 107.127 184.056C107.463 184.12 107.823 184.216 108.207 184.344C108.431 184.424 108.655 184.496 108.879 184.56C109.119 184.608 109.335 184.632 109.527 184.632C109.783 184.632 110.007 184.56 110.199 184.416C110.391 184.256 110.527 184.056 110.607 183.816L112.719 184.464C112.511 185.296 112.167 185.944 111.687 186.408C111.223 186.872 110.687 187.104 110.079 187.104C109.807 187.104 109.551 187.072 109.311 187.008C109.071 186.944 108.751 186.848 108.351 186.72C107.583 186.464 106.983 186.336 106.551 186.336ZM108.375 196.728C108.695 196.728 108.951 196.632 109.143 196.44C109.351 196.232 109.455 195.968 109.455 195.648C109.455 195.328 109.351 195.072 109.143 194.88C108.951 194.672 108.695 194.568 108.375 194.568C108.071 194.568 107.815 194.672 107.607 194.88C107.415 195.072 107.319 195.328 107.319 195.648C107.319 195.968 107.415 196.232 107.607 196.44C107.815 196.632 108.071 196.728 108.375 196.728ZM119.32 183.936C121.016 183.936 122.328 184.32 123.256 185.088C124.184 185.84 124.648 186.896 124.648 188.256V195.432C124.648 196.264 124.368 196.944 123.808 197.472C123.264 197.984 122.552 198.24 121.672 198.24C120.84 198.24 120.16 198 119.632 197.52C119.104 197.024 118.84 196.4 118.84 195.648C118.84 194.88 119.08 194.264 119.56 193.8C120.056 193.32 120.688 193.08 121.456 193.08H121.576V188.424C121.576 187.752 121.376 187.24 120.976 186.888C120.592 186.52 120.024 186.336 119.272 186.336C118.568 186.336 117.992 186.544 117.544 186.96C117.112 187.36 116.848 187.92 116.752 188.64H113.704C113.768 187.168 114.296 186.016 115.288 185.184C116.296 184.352 117.64 183.936 119.32 183.936ZM121.456 196.728C121.776 196.728 122.032 196.624 122.224 196.416C122.432 196.208 122.536 195.952 122.536 195.648C122.536 195.328 122.432 195.072 122.224 194.88C122.032 194.672 121.776 194.568 121.456 194.568C121.136 194.568 120.872 194.672 120.664 194.88C120.472 195.072 120.376 195.328 120.376 195.648C120.376 195.968 120.472 196.232 120.664 196.44C120.872 196.632 121.136 196.728 121.456 196.728ZM134.612 198.24C133.636 198.24 132.852 198.048 132.26 197.664C131.668 197.28 131.3 196.712 131.156 195.96L130.82 194.064C130.66 194.096 130.516 194.112 130.388 194.112C129.604 194.112 128.964 193.888 128.468 193.44C127.972 192.976 127.724 192.384 127.724 191.664C127.724 190.912 127.98 190.32 128.492 189.888C129.02 189.456 129.66 189.24 130.412 189.24C131.036 189.24 131.58 189.408 132.044 189.744C132.524 190.08 132.82 190.536 132.932 191.112L133.7 195.24C133.732 195.448 133.82 195.608 133.964 195.72C134.124 195.832 134.316 195.888 134.54 195.888C135.052 195.888 135.308 195.648 135.308 195.168V188.28C135.308 187.688 135.06 187.216 134.564 186.864C134.084 186.512 133.444 186.336 132.644 186.336C131.86 186.336 131.196 186.512 130.652 186.864C130.108 187.216 129.78 187.672 129.668 188.232H126.644C126.74 186.936 127.324 185.896 128.396 185.112C129.484 184.328 130.924 183.936 132.716 183.936C133.836 183.936 134.82 184.104 135.668 184.44C136.532 184.76 137.196 185.224 137.66 185.832C138.14 186.44 138.38 187.136 138.38 187.92V195.24C138.38 196.216 138.06 196.96 137.42 197.472C136.78 197.984 135.844 198.24 134.612 198.24ZM130.268 192.648C130.572 192.648 130.812 192.56 130.988 192.384C131.18 192.192 131.276 191.944 131.276 191.64C131.276 191.336 131.18 191.096 130.988 190.92C130.812 190.728 130.572 190.632 130.268 190.632C129.964 190.632 129.716 190.728 129.524 190.92C129.332 191.096 129.236 191.336 129.236 191.64C129.236 191.944 129.332 192.192 129.524 192.384C129.716 192.56 129.964 192.648 130.268 192.648ZM153.53 182.832C153.482 183.744 152.93 184.72 151.874 185.76C152.482 186.464 152.786 187.28 152.786 188.208V198H149.714V192.936C149.714 192.344 149.45 191.872 148.922 191.52C148.41 191.168 147.778 190.992 147.026 190.992C146.258 190.992 145.642 191.16 145.178 191.496C144.73 191.816 144.506 192.256 144.506 192.816V193.08H144.626C145.394 193.08 146.018 193.32 146.498 193.8C146.994 194.264 147.242 194.88 147.242 195.648C147.242 196.4 146.978 197.024 146.45 197.52C145.922 198 145.242 198.24 144.41 198.24C143.53 198.24 142.81 197.984 142.25 197.472C141.706 196.944 141.434 196.264 141.434 195.432V192.816C141.434 191.856 141.754 191.04 142.394 190.368C143.05 189.68 143.914 189.216 144.986 188.976C146.122 188.192 147.122 187.352 147.986 186.456C147.618 186.376 147.218 186.336 146.786 186.336C145.906 186.336 145.17 186.512 144.578 186.864C144.002 187.2 143.658 187.656 143.546 188.232H140.57C140.65 186.92 141.234 185.88 142.322 185.112C143.426 184.328 144.914 183.936 146.786 183.936C147.89 183.936 148.85 184.08 149.666 184.368C149.986 183.84 150.178 183.328 150.242 182.832H153.53ZM149.714 188.136C149.714 187.928 149.666 187.728 149.57 187.536C148.882 187.984 148.138 188.424 147.338 188.856C148.33 188.984 149.122 189.32 149.714 189.864V188.136ZM145.706 195.648C145.706 195.328 145.602 195.072 145.394 194.88C145.202 194.672 144.946 194.568 144.626 194.568C144.322 194.568 144.066 194.672 143.858 194.88C143.65 195.072 143.546 195.328 143.546 195.648C143.546 195.952 143.65 196.208 143.858 196.416C144.066 196.624 144.322 196.728 144.626 196.728C144.946 196.728 145.202 196.632 145.394 196.44C145.602 196.232 145.706 195.968 145.706 195.648ZM161.321 183.936C162.489 183.936 163.513 184.12 164.393 184.488C165.289 184.84 165.977 185.336 166.457 185.976C166.953 186.616 167.201 187.36 167.201 188.208V194.64C167.201 195.76 166.705 196.64 165.713 197.28C164.737 197.92 163.409 198.24 161.729 198.24C160.033 198.24 158.705 197.92 157.745 197.28C156.785 196.624 156.305 195.744 156.305 194.64V191.52C156.305 190.688 156.577 190.024 157.121 189.528C157.665 189.016 158.369 188.76 159.233 188.76C160.081 188.76 160.761 189 161.273 189.48C161.785 189.944 162.041 190.552 162.041 191.304C162.041 192.056 161.793 192.664 161.297 193.128C160.817 193.576 160.201 193.8 159.449 193.8H159.329V194.472C159.329 194.904 159.553 195.24 160.001 195.48C160.465 195.72 161.057 195.84 161.777 195.84C162.561 195.84 163.145 195.704 163.529 195.432C163.929 195.144 164.129 194.76 164.129 194.28V188.328C164.129 187.736 163.865 187.256 163.337 186.888C162.825 186.52 162.137 186.336 161.273 186.336C160.441 186.336 159.721 186.512 159.113 186.864C158.521 187.2 158.169 187.656 158.057 188.232H155.081C155.145 187.368 155.449 186.616 155.993 185.976C156.537 185.32 157.265 184.816 158.177 184.464C159.105 184.112 160.153 183.936 161.321 183.936ZM159.473 190.248C159.153 190.248 158.897 190.344 158.705 190.536C158.513 190.728 158.417 190.976 158.417 191.28C158.417 191.6 158.513 191.856 158.705 192.048C158.897 192.24 159.153 192.336 159.473 192.336C159.777 192.336 160.025 192.24 160.217 192.048C160.425 191.856 160.529 191.6 160.529 191.28C160.529 190.976 160.425 190.728 160.217 190.536C160.025 190.344 159.777 190.248 159.473 190.248ZM182.815 184.152V194.88C182.815 195.92 182.319 196.744 181.327 197.352C180.351 197.944 179.007 198.24 177.295 198.24C175.583 198.24 174.231 197.944 173.239 197.352C172.263 196.744 171.775 195.92 171.775 194.88V189.096H171.655C170.871 189.096 170.231 188.864 169.735 188.4C169.255 187.92 169.015 187.296 169.015 186.528C169.015 185.776 169.279 185.16 169.807 184.68C170.335 184.184 171.015 183.936 171.847 183.936C172.727 183.936 173.439 184.2 173.983 184.728C174.543 185.24 174.823 185.904 174.823 186.72V194.424C174.823 194.856 175.039 195.2 175.471 195.456C175.919 195.712 176.527 195.84 177.295 195.84C178.047 195.84 178.639 195.712 179.071 195.456C179.519 195.2 179.743 194.856 179.743 194.424V184.152H182.815ZM171.631 187.608C171.951 187.608 172.207 187.512 172.399 187.32C172.607 187.112 172.711 186.848 172.711 186.528C172.711 186.208 172.607 185.952 172.399 185.76C172.207 185.552 171.951 185.448 171.631 185.448C171.327 185.448 171.071 185.552 170.863 185.76C170.655 185.952 170.551 186.208 170.551 186.528C170.551 186.832 170.655 187.088 170.863 187.296C171.071 187.504 171.327 187.608 171.631 187.608ZM191.536 183.936C193.472 183.936 195 184.36 196.12 185.208C197.24 186.04 197.8 187.184 197.8 188.64V198H194.728V188.952C194.728 188.136 194.44 187.496 193.864 187.032C193.304 186.568 192.528 186.336 191.536 186.336C190.448 186.336 189.584 186.584 188.944 187.08C188.32 187.576 188.008 188.264 188.008 189.144C188.008 189.656 188.096 190.44 188.272 191.496C188.544 190.552 188.952 189.824 189.496 189.312C190.056 188.784 190.728 188.52 191.512 188.52C192.296 188.52 192.904 188.72 193.336 189.12C193.784 189.52 194.008 190.08 194.008 190.8C194.008 191.504 193.8 192.056 193.384 192.456C192.968 192.856 192.4 193.056 191.68 193.056C191.312 193.056 190.968 192.992 190.648 192.864C190.344 192.736 190.104 192.552 189.928 192.312C189.672 192.68 189.464 193.136 189.304 193.68C189.144 194.208 189.064 194.736 189.064 195.264V198H186.088V194.4C186.088 194.048 185.936 193.328 185.632 192.24C185.44 191.472 185.296 190.864 185.2 190.416C185.104 189.968 185.056 189.552 185.056 189.168C185.056 187.568 185.624 186.296 186.76 185.352C187.912 184.408 189.504 183.936 191.536 183.936ZM191.632 189.816C191.344 189.816 191.104 189.904 190.912 190.08C190.736 190.256 190.648 190.488 190.648 190.776C190.648 191.08 190.736 191.32 190.912 191.496C191.104 191.672 191.344 191.76 191.632 191.76C191.92 191.76 192.152 191.672 192.328 191.496C192.504 191.32 192.592 191.08 192.592 190.776C192.592 190.488 192.504 190.256 192.328 190.08C192.152 189.904 191.92 189.816 191.632 189.816ZM196.006 182.184C195.078 182.184 194.326 181.912 193.75 181.368C193.174 180.808 192.886 180.088 192.886 179.208C192.886 178.328 193.174 177.616 193.75 177.072C194.326 176.512 195.078 176.232 196.006 176.232C196.934 176.232 197.694 176.512 198.286 177.072C198.862 177.616 199.15 178.328 199.15 179.208C199.15 180.088 198.862 180.808 198.286 181.368C197.694 181.912 196.934 182.184 196.006 182.184ZM196.006 180.576C196.406 180.576 196.734 180.448 196.99 180.192C197.246 179.936 197.374 179.608 197.374 179.208C197.374 178.808 197.246 178.488 196.99 178.248C196.734 177.992 196.406 177.864 196.006 177.864C195.606 177.864 195.286 177.992 195.046 178.248C194.79 178.488 194.662 178.808 194.662 179.208C194.662 179.608 194.79 179.936 195.046 180.192C195.286 180.448 195.606 180.576 196.006 180.576ZM206.969 188.208C206.969 187.616 206.785 187.16 206.417 186.84C206.049 186.504 205.545 186.336 204.905 186.336C204.185 186.336 203.625 186.544 203.225 186.96C202.825 187.36 202.625 187.92 202.625 188.64H199.673C199.673 187.168 200.137 186.016 201.065 185.184C201.993 184.352 203.273 183.936 204.905 183.936C206.505 183.936 207.753 184.296 208.649 185.016C209.561 185.736 210.017 186.736 210.017 188.016V198H206.969V188.208ZM218.747 183.936C220.683 183.936 222.211 184.36 223.331 185.208C224.451 186.04 225.011 187.184 225.011 188.64V198H221.939V188.952C221.939 188.136 221.651 187.496 221.075 187.032C220.515 186.568 219.739 186.336 218.747 186.336C217.659 186.336 216.795 186.584 216.155 187.08C215.531 187.576 215.219 188.264 215.219 189.144C215.219 189.656 215.307 190.44 215.483 191.496C215.755 190.552 216.163 189.824 216.707 189.312C217.267 188.784 217.939 188.52 218.723 188.52C219.507 188.52 220.115 188.72 220.547 189.12C220.995 189.52 221.219 190.08 221.219 190.8C221.219 191.504 221.011 192.056 220.595 192.456C220.179 192.856 219.611 193.056 218.891 193.056C218.523 193.056 218.179 192.992 217.859 192.864C217.555 192.736 217.315 192.552 217.139 192.312C216.883 192.68 216.675 193.136 216.515 193.68C216.355 194.208 216.275 194.736 216.275 195.264V198H213.299V194.4C213.299 194.048 213.147 193.328 212.843 192.24C212.651 191.472 212.507 190.864 212.411 190.416C212.315 189.968 212.267 189.552 212.267 189.168C212.267 187.568 212.835 186.296 213.971 185.352C215.123 184.408 216.715 183.936 218.747 183.936ZM218.843 189.816C218.555 189.816 218.315 189.904 218.123 190.08C217.947 190.256 217.859 190.488 217.859 190.776C217.859 191.08 217.947 191.32 218.123 191.496C218.315 191.672 218.555 191.76 218.843 191.76C219.131 191.76 219.363 191.672 219.539 191.496C219.715 191.32 219.803 191.08 219.803 190.776C219.803 190.488 219.715 190.256 219.539 190.08C219.363 189.904 219.131 189.816 218.843 189.816ZM227.177 174.984C227.081 176.296 226.657 177.456 225.904 178.464C225.136 179.456 224.128 180.224 222.88 180.768C221.616 181.312 220.216 181.584 218.68 181.584H217.48V180.312C218.312 179.976 219.024 179.536 219.616 178.992H219.544C218.888 178.992 218.368 178.8 217.984 178.416C217.584 178.032 217.384 177.504 217.384 176.832C217.384 176.208 217.608 175.696 218.056 175.296C218.488 174.896 219.04 174.696 219.712 174.696C220.4 174.696 220.96 174.912 221.392 175.344C221.824 175.76 222.04 176.32 222.04 177.024C222.04 177.424 221.968 177.856 221.824 178.32C221.664 178.784 221.416 179.2 221.08 179.568C221.752 179.392 222.36 179.056 222.904 178.56C223.432 178.064 223.848 177.496 224.152 176.856C224.456 176.216 224.632 175.592 224.68 174.984H227.177ZM218.848 176.88C218.848 177.136 218.928 177.344 219.088 177.504C219.248 177.648 219.456 177.72 219.712 177.72C219.952 177.72 220.152 177.648 220.312 177.504C220.472 177.344 220.552 177.136 220.552 176.88C220.552 176.624 220.472 176.416 220.312 176.256C220.152 176.096 219.952 176.016 219.712 176.016C219.456 176.016 219.248 176.096 219.088 176.256C218.928 176.416 218.848 176.624 218.848 176.88ZM239.435 193.152C239.947 193.376 240.339 193.688 240.611 194.088C240.899 194.488 241.043 194.936 241.043 195.432C241.043 196.296 240.787 196.984 240.275 197.496C239.779 197.992 239.107 198.24 238.259 198.24C237.427 198.24 236.755 198 236.243 197.52C235.747 197.04 235.491 196.392 235.475 195.576C234.851 195.848 234.275 196.2 233.747 196.632C233.219 197.048 232.803 197.504 232.499 198H229.595V189.096H229.475C228.691 189.096 228.051 188.864 227.555 188.4C227.075 187.92 226.835 187.296 226.835 186.528C226.835 185.776 227.099 185.16 227.627 184.68C228.155 184.184 228.835 183.936 229.667 183.936C230.547 183.936 231.259 184.2 231.803 184.728C232.363 185.24 232.643 185.904 232.643 186.72V194.928C232.963 194.464 233.803 193.92 235.163 193.296C235.931 192.96 236.483 192.64 236.819 192.336C237.171 192.016 237.347 191.616 237.347 191.136V184.152H240.419V191.064C240.419 191.528 240.331 191.944 240.155 192.312C239.979 192.68 239.739 192.96 239.435 193.152ZM229.451 187.608C229.771 187.608 230.027 187.512 230.219 187.32C230.427 187.112 230.531 186.848 230.531 186.528C230.531 186.208 230.427 185.952 230.219 185.76C230.027 185.552 229.771 185.448 229.451 185.448C229.147 185.448 228.891 185.552 228.683 185.76C228.475 185.952 228.371 186.208 228.371 186.528C228.371 186.832 228.475 187.088 228.683 187.296C228.891 187.504 229.147 187.608 229.451 187.608ZM238.259 196.728C238.579 196.728 238.835 196.624 239.027 196.416C239.235 196.208 239.339 195.952 239.339 195.648C239.339 195.328 239.235 195.072 239.027 194.88C238.835 194.672 238.579 194.568 238.259 194.568C237.955 194.568 237.699 194.672 237.491 194.88C237.283 195.072 237.179 195.328 237.179 195.648C237.179 195.952 237.283 196.208 237.491 196.416C237.699 196.624 237.955 196.728 238.259 196.728ZM255.333 188.472C255.845 188.952 256.101 189.616 256.101 190.464V198H253.029V190.848C253.029 190.352 252.877 190.104 252.573 190.104C252.349 190.104 252.125 190.304 251.901 190.704L247.917 198H245.205V189.096H245.085C244.301 189.096 243.661 188.864 243.165 188.4C242.685 187.92 242.445 187.296 242.445 186.528C242.445 185.776 242.709 185.16 243.237 184.68C243.765 184.184 244.445 183.936 245.277 183.936C246.157 183.936 246.869 184.2 247.413 184.728C247.973 185.24 248.253 185.904 248.253 186.72V191.64C248.253 192.504 248.181 193.312 248.037 194.064L250.485 189.552C250.805 188.944 251.213 188.512 251.709 188.256C251.277 187.776 251.061 187.184 251.061 186.48C251.061 185.744 251.301 185.136 251.781 184.656C252.277 184.176 252.901 183.936 253.653 183.936C254.405 183.936 255.029 184.176 255.525 184.656C256.021 185.136 256.269 185.744 256.269 186.48C256.269 186.896 256.181 187.272 256.005 187.608C255.845 187.944 255.621 188.232 255.333 188.472ZM245.061 187.608C245.381 187.608 245.637 187.512 245.829 187.32C246.037 187.112 246.141 186.848 246.141 186.528C246.141 186.208 246.037 185.952 245.829 185.76C245.637 185.552 245.381 185.448 245.061 185.448C244.757 185.448 244.501 185.552 244.293 185.76C244.085 185.952 243.981 186.208 243.981 186.528C243.981 186.832 244.085 187.088 244.293 187.296C244.501 187.504 244.757 187.608 245.061 187.608ZM253.653 185.448C253.349 185.448 253.093 185.552 252.885 185.76C252.693 185.952 252.597 186.208 252.597 186.528C252.597 186.848 252.693 187.112 252.885 187.32C253.093 187.512 253.349 187.608 253.653 187.608C253.973 187.608 254.229 187.512 254.421 187.32C254.629 187.112 254.733 186.848 254.733 186.528C254.733 186.208 254.629 185.952 254.421 185.76C254.229 185.552 253.973 185.448 253.653 185.448ZM265.258 188.208C265.258 187.616 265.074 187.16 264.706 186.84C264.338 186.504 263.834 186.336 263.194 186.336C262.474 186.336 261.914 186.544 261.514 186.96C261.114 187.36 260.914 187.92 260.914 188.64H257.962C257.962 187.168 258.426 186.016 259.354 185.184C260.282 184.352 261.562 183.936 263.194 183.936C264.794 183.936 266.042 184.296 266.938 185.016C267.85 185.736 268.306 186.736 268.306 188.016V198H265.258V188.208ZM276.748 193.08C277.484 193.08 278.1 193.328 278.596 193.824C279.108 194.304 279.364 194.912 279.364 195.648C279.364 196.416 279.1 197.04 278.572 197.52C278.044 198 277.364 198.24 276.532 198.24C275.652 198.24 274.932 197.984 274.372 197.472C273.828 196.944 273.556 196.264 273.556 195.432V182.904C273.556 182.216 273.636 181.608 273.796 181.08C273.972 180.552 274.22 179.976 274.54 179.352C274.748 178.952 274.9 178.616 274.996 178.344C275.108 178.072 275.164 177.8 275.164 177.528C275.164 177.016 274.964 176.624 274.564 176.352C274.18 176.08 273.684 175.944 273.076 175.944C272.34 175.944 271.764 176.168 271.348 176.616H271.492C272.116 176.616 272.644 176.824 273.076 177.24C273.508 177.64 273.724 178.168 273.724 178.824C273.724 179.512 273.476 180.088 272.98 180.552C272.5 181 271.852 181.224 271.036 181.224C270.22 181.224 269.556 180.976 269.044 180.48C268.532 179.984 268.276 179.264 268.276 178.32C268.276 177.488 268.476 176.736 268.876 176.064C269.26 175.392 269.82 174.864 270.556 174.48C271.308 174.08 272.204 173.88 273.244 173.88C274.636 173.88 275.804 174.208 276.748 174.864C277.708 175.504 278.188 176.368 278.188 177.456C278.188 177.888 278.124 178.272 277.996 178.608C277.884 178.928 277.708 179.28 277.468 179.664C277.196 180.144 276.988 180.592 276.844 181.008C276.7 181.424 276.628 181.944 276.628 182.568V193.08H276.748ZM272.044 178.872C272.044 178.584 271.956 178.352 271.78 178.176C271.604 177.984 271.364 177.888 271.06 177.888C270.772 177.888 270.54 177.984 270.364 178.176C270.188 178.352 270.1 178.584 270.1 178.872C270.1 179.16 270.188 179.4 270.364 179.592C270.54 179.768 270.772 179.856 271.06 179.856C271.364 179.856 271.604 179.768 271.78 179.592C271.956 179.4 272.044 179.16 272.044 178.872ZM276.748 196.728C277.068 196.728 277.324 196.624 277.516 196.416C277.724 196.208 277.828 195.952 277.828 195.648C277.828 195.328 277.724 195.072 277.516 194.88C277.324 194.672 277.068 194.568 276.748 194.568C276.444 194.568 276.188 194.672 275.98 194.88C275.772 195.072 275.668 195.328 275.668 195.648C275.668 195.952 275.772 196.208 275.98 196.416C276.188 196.624 276.444 196.728 276.748 196.728ZM293.231 188.472C293.743 188.952 293.999 189.616 293.999 190.464V198H290.927V190.848C290.927 190.352 290.775 190.104 290.471 190.104C290.247 190.104 290.023 190.304 289.799 190.704L285.815 198H283.103V189.096H282.983C282.199 189.096 281.559 188.864 281.063 188.4C280.583 187.92 280.343 187.296 280.343 186.528C280.343 185.776 280.607 185.16 281.135 184.68C281.663 184.184 282.343 183.936 283.175 183.936C284.055 183.936 284.767 184.2 285.311 184.728C285.871 185.24 286.151 185.904 286.151 186.72V191.64C286.151 192.504 286.079 193.312 285.935 194.064L288.383 189.552C288.703 188.944 289.111 188.512 289.607 188.256C289.175 187.776 288.959 187.184 288.959 186.48C288.959 185.744 289.199 185.136 289.679 184.656C290.175 184.176 290.799 183.936 291.551 183.936C292.303 183.936 292.927 184.176 293.423 184.656C293.919 185.136 294.167 185.744 294.167 186.48C294.167 186.896 294.079 187.272 293.903 187.608C293.743 187.944 293.519 188.232 293.231 188.472ZM282.959 187.608C283.279 187.608 283.535 187.512 283.727 187.32C283.935 187.112 284.039 186.848 284.039 186.528C284.039 186.208 283.935 185.952 283.727 185.76C283.535 185.552 283.279 185.448 282.959 185.448C282.655 185.448 282.399 185.552 282.191 185.76C281.983 185.952 281.879 186.208 281.879 186.528C281.879 186.832 281.983 187.088 282.191 187.296C282.399 187.504 282.655 187.608 282.959 187.608ZM291.551 185.448C291.247 185.448 290.991 185.552 290.783 185.76C290.591 185.952 290.495 186.208 290.495 186.528C290.495 186.848 290.591 187.112 290.783 187.32C290.991 187.512 291.247 187.608 291.551 187.608C291.871 187.608 292.127 187.512 292.319 187.32C292.527 187.112 292.631 186.848 292.631 186.528C292.631 186.208 292.527 185.952 292.319 185.76C292.127 185.552 291.871 185.448 291.551 185.448ZM309.084 184.152V198.024H306.42C305.876 197.528 305.244 197.08 304.524 196.68C303.804 196.264 303.092 195.928 302.388 195.672C302.324 196.424 301.996 197.04 301.404 197.52C300.828 198 300.116 198.24 299.268 198.24C298.388 198.24 297.668 197.976 297.108 197.448C296.564 196.92 296.292 196.248 296.292 195.432C296.292 194.664 296.532 194.04 297.012 193.56C297.508 193.064 298.172 192.784 299.004 192.72V189.096H298.884C298.116 189.096 297.484 188.864 296.988 188.4C296.508 187.92 296.268 187.296 296.268 186.528C296.268 185.776 296.532 185.16 297.06 184.68C297.588 184.184 298.268 183.936 299.1 183.936C299.98 183.936 300.692 184.2 301.236 184.728C301.796 185.24 302.076 185.904 302.076 186.72V193.056C302.812 193.312 303.54 193.6 304.26 193.92C304.98 194.224 305.572 194.52 306.036 194.808V184.152H309.084ZM298.86 187.608C299.18 187.608 299.436 187.512 299.628 187.32C299.836 187.112 299.94 186.848 299.94 186.528C299.94 186.208 299.836 185.952 299.628 185.76C299.436 185.552 299.18 185.448 298.86 185.448C298.556 185.448 298.3 185.552 298.092 185.76C297.9 185.952 297.804 186.208 297.804 186.528C297.804 186.848 297.9 187.112 298.092 187.32C298.3 187.512 298.556 187.608 298.86 187.608ZM299.124 196.56C299.444 196.56 299.7 196.464 299.892 196.272C300.1 196.064 300.204 195.8 300.204 195.48C300.204 195.16 300.1 194.904 299.892 194.712C299.7 194.504 299.444 194.4 299.124 194.4C298.804 194.4 298.54 194.504 298.332 194.712C298.14 194.904 298.044 195.16 298.044 195.48C298.044 195.8 298.14 196.064 298.332 196.272C298.54 196.464 298.804 196.56 299.124 196.56ZM306.153 176.328H308.985V181.584H306.153V176.328ZM317.649 183.936C318.817 183.936 319.841 184.12 320.721 184.488C321.617 184.84 322.305 185.336 322.785 185.976C323.281 186.616 323.529 187.36 323.529 188.208V194.64C323.529 195.76 323.033 196.64 322.041 197.28C321.065 197.92 319.737 198.24 318.057 198.24C316.361 198.24 315.033 197.92 314.073 197.28C313.113 196.624 312.633 195.744 312.633 194.64V191.52C312.633 190.688 312.905 190.024 313.449 189.528C313.993 189.016 314.697 188.76 315.561 188.76C316.409 188.76 317.089 189 317.601 189.48C318.113 189.944 318.369 190.552 318.369 191.304C318.369 192.056 318.121 192.664 317.625 193.128C317.145 193.576 316.529 193.8 315.777 193.8H315.657V194.472C315.657 194.904 315.881 195.24 316.329 195.48C316.793 195.72 317.385 195.84 318.105 195.84C318.889 195.84 319.473 195.704 319.857 195.432C320.257 195.144 320.457 194.76 320.457 194.28V188.328C320.457 187.736 320.193 187.256 319.665 186.888C319.153 186.52 318.465 186.336 317.601 186.336C316.769 186.336 316.049 186.512 315.441 186.864C314.849 187.2 314.497 187.656 314.385 188.232H311.409C311.473 187.368 311.777 186.616 312.321 185.976C312.865 185.32 313.593 184.816 314.505 184.464C315.433 184.112 316.481 183.936 317.649 183.936ZM315.801 190.248C315.481 190.248 315.225 190.344 315.033 190.536C314.841 190.728 314.745 190.976 314.745 191.28C314.745 191.6 314.841 191.856 315.033 192.048C315.225 192.24 315.481 192.336 315.801 192.336C316.105 192.336 316.353 192.24 316.545 192.048C316.753 191.856 316.857 191.6 316.857 191.28C316.857 190.976 316.753 190.728 316.545 190.536C316.353 190.344 316.105 190.248 315.801 190.248ZM323.73 180.936C323.81 181.32 323.866 181.792 323.898 182.352C322.89 181.92 321.498 181.56 319.722 181.272C317.93 180.984 316.242 180.84 314.658 180.84C313.73 180.84 312.882 180.904 312.114 181.032C312.13 180.056 312.37 179.2 312.834 178.464C313.298 177.728 313.954 177.16 314.802 176.76C315.65 176.344 316.626 176.136 317.73 176.136C319.074 176.136 320.226 176.432 321.186 177.024V175.104H323.73V180.936ZM315.954 179.376C316.882 179.376 317.834 179.44 318.81 179.568C319.77 179.696 320.618 179.872 321.354 180.096C321.034 179.376 320.57 178.832 319.962 178.464C319.354 178.096 318.642 177.912 317.826 177.912C317.09 177.912 316.458 178.048 315.93 178.32C315.386 178.576 315.026 178.936 314.85 179.4C315.09 179.384 315.458 179.376 315.954 179.376ZM326.615 192.432C326.615 191.856 326.759 191.336 327.047 190.872C327.351 190.408 327.767 190.056 328.295 189.816C327.783 189.672 326.959 189.528 325.823 189.384C325.839 188.312 326.111 187.368 326.639 186.552C327.167 185.72 327.903 185.08 328.847 184.632C329.791 184.168 330.871 183.936 332.087 183.936C333.223 183.936 334.223 184.144 335.087 184.56C335.967 184.976 336.647 185.56 337.127 186.312C337.607 187.048 337.847 187.904 337.847 188.88V198H334.775V189.216C334.775 188.368 334.503 187.68 333.959 187.152C333.431 186.608 332.727 186.336 331.847 186.336C331.111 186.336 330.439 186.496 329.831 186.816C329.239 187.136 328.839 187.552 328.631 188.064C329.159 188.176 329.671 188.32 330.167 188.496C330.679 188.672 331.095 188.864 331.415 189.072V189.936C330.855 190.144 330.423 190.448 330.119 190.848C329.831 191.248 329.687 191.728 329.687 192.288V198H326.615V192.432ZM346.552 183.936C348.488 183.936 350.016 184.36 351.136 185.208C352.256 186.04 352.816 187.184 352.816 188.64V198H349.744V188.952C349.744 188.136 349.456 187.496 348.88 187.032C348.32 186.568 347.544 186.336 346.552 186.336C345.464 186.336 344.6 186.584 343.96 187.08C343.336 187.576 343.024 188.264 343.024 189.144C343.024 189.656 343.112 190.44 343.288 191.496C343.56 190.552 343.968 189.824 344.512 189.312C345.072 188.784 345.744 188.52 346.528 188.52C347.312 188.52 347.92 188.72 348.352 189.12C348.8 189.52 349.024 190.08 349.024 190.8C349.024 191.504 348.816 192.056 348.4 192.456C347.984 192.856 347.416 193.056 346.696 193.056C346.328 193.056 345.984 192.992 345.664 192.864C345.36 192.736 345.12 192.552 344.944 192.312C344.688 192.68 344.48 193.136 344.32 193.68C344.16 194.208 344.08 194.736 344.08 195.264V198H341.104V194.4C341.104 194.048 340.952 193.328 340.648 192.24C340.456 191.472 340.312 190.864 340.216 190.416C340.12 189.968 340.072 189.552 340.072 189.168C340.072 187.568 340.64 186.296 341.776 185.352C342.928 184.408 344.52 183.936 346.552 183.936ZM346.648 189.816C346.36 189.816 346.12 189.904 345.928 190.08C345.752 190.256 345.664 190.488 345.664 190.776C345.664 191.08 345.752 191.32 345.928 191.496C346.12 191.672 346.36 191.76 346.648 191.76C346.936 191.76 347.168 191.672 347.344 191.496C347.52 191.32 347.608 191.08 347.608 190.776C347.608 190.488 347.52 190.256 347.344 190.08C347.168 189.904 346.936 189.816 346.648 189.816ZM359.488 186.336C359.136 186.336 358.824 186.432 358.552 186.624C358.296 186.816 358.16 187.064 358.144 187.368C360.096 187.544 361.648 187.92 362.8 188.496C363.952 189.056 364.528 189.744 364.528 190.56V195.432C364.528 196.264 364.248 196.944 363.688 197.472C363.144 197.984 362.432 198.24 361.552 198.24C360.72 198.24 360.04 198 359.512 197.52C358.984 197.024 358.72 196.4 358.72 195.648C358.72 194.88 358.96 194.264 359.44 193.8C359.92 193.32 360.552 193.08 361.336 193.08H361.456V191.064C361.456 190.6 360.768 190.2 359.392 189.864C358.032 189.512 356.536 189.296 354.904 189.216C354.92 187.552 355.288 186.256 356.008 185.328C356.728 184.4 357.704 183.936 358.936 183.936C359.368 183.936 359.744 183.976 360.064 184.056C360.4 184.12 360.76 184.216 361.144 184.344C361.368 184.424 361.592 184.496 361.816 184.56C362.056 184.608 362.272 184.632 362.464 184.632C362.72 184.632 362.944 184.56 363.136 184.416C363.328 184.256 363.464 184.056 363.544 183.816L365.656 184.464C365.448 185.296 365.104 185.944 364.624 186.408C364.16 186.872 363.624 187.104 363.016 187.104C362.744 187.104 362.488 187.072 362.248 187.008C362.008 186.944 361.688 186.848 361.288 186.72C360.52 186.464 359.92 186.336 359.488 186.336ZM361.312 196.728C361.632 196.728 361.888 196.632 362.08 196.44C362.288 196.232 362.392 195.968 362.392 195.648C362.392 195.328 362.288 195.072 362.08 194.88C361.888 194.672 361.632 194.568 361.312 194.568C361.008 194.568 360.752 194.672 360.544 194.88C360.352 195.072 360.256 195.328 360.256 195.648C360.256 195.968 360.352 196.232 360.544 196.44C360.752 196.632 361.008 196.728 361.312 196.728ZM368.789 175.752C368.789 177.016 368.493 178.104 367.901 179.016C367.325 179.928 366.541 180.624 365.549 181.104C364.541 181.584 363.413 181.824 362.165 181.824C360.597 181.824 359.373 181.52 358.493 180.912C357.613 180.304 357.173 179.496 357.173 178.488C357.173 177.736 357.421 177.136 357.917 176.688C358.397 176.24 359.021 176.016 359.789 176.016C360.557 176.016 361.189 176.248 361.685 176.712C362.181 177.16 362.429 177.76 362.429 178.512C362.429 179.104 362.277 179.616 361.973 180.048C363.365 180.048 364.437 179.64 365.189 178.824C365.925 177.992 366.301 176.968 366.317 175.752H368.789ZM358.709 178.464C358.709 178.784 358.813 179.048 359.021 179.256C359.213 179.448 359.469 179.544 359.789 179.544C360.093 179.544 360.349 179.44 360.557 179.232C360.765 179.024 360.869 178.768 360.869 178.464C360.869 178.16 360.773 177.912 360.581 177.72C360.373 177.528 360.109 177.432 359.789 177.432C359.469 177.432 359.213 177.528 359.021 177.72C358.813 177.912 358.709 178.16 358.709 178.464ZM367.648 168.64C367.568 169.808 367.168 170.848 366.448 171.76C365.728 172.656 364.792 173.352 363.64 173.848C362.472 174.344 361.192 174.592 359.8 174.592H358.648V173.44C359.352 173.216 360.016 172.816 360.64 172.24H360.544C359.936 172.24 359.456 172.072 359.104 171.736C358.752 171.384 358.576 170.904 358.576 170.296C358.576 169.72 358.776 169.256 359.176 168.904C359.576 168.536 360.08 168.352 360.688 168.352C361.312 168.352 361.824 168.544 362.224 168.928C362.624 169.312 362.824 169.816 362.824 170.44C362.824 170.808 362.752 171.216 362.608 171.664C362.464 172.112 362.24 172.504 361.936 172.84C362.608 172.648 363.208 172.328 363.736 171.88C364.248 171.416 364.656 170.896 364.96 170.32C365.248 169.744 365.408 169.184 365.44 168.64H367.648ZM359.92 170.32C359.92 170.544 359.992 170.736 360.136 170.896C360.28 171.04 360.464 171.112 360.688 171.112C360.912 171.112 361.096 171.04 361.24 170.896C361.384 170.736 361.456 170.544 361.456 170.32C361.456 170.096 361.384 169.912 361.24 169.768C361.08 169.624 360.896 169.552 360.688 169.552C360.464 169.552 360.28 169.624 360.136 169.768C359.992 169.912 359.92 170.096 359.92 170.32ZM373.337 183.936C374.217 183.936 374.929 184.2 375.473 184.728C376.033 185.24 376.313 185.904 376.313 186.72V198H373.265L366.593 190.92L368.249 189.192L373.265 194.592V189.096H373.145C372.361 189.096 371.721 188.864 371.225 188.4C370.745 187.92 370.505 187.296 370.505 186.528C370.505 185.776 370.769 185.16 371.297 184.68C371.825 184.184 372.505 183.936 373.337 183.936ZM373.121 187.608C373.441 187.608 373.697 187.512 373.889 187.32C374.097 187.112 374.201 186.848 374.201 186.528C374.201 186.208 374.097 185.952 373.889 185.76C373.697 185.552 373.441 185.448 373.121 185.448C372.817 185.448 372.561 185.552 372.353 185.76C372.145 185.952 372.041 186.208 372.041 186.528C372.041 186.832 372.145 187.088 372.353 187.296C372.561 187.504 372.817 187.608 373.121 187.608Z" fill="#4B5760"/>
</g>
<defs>
<linearGradient id="paint0_linear_710_17173" x1="204" y1="367.462" x2="204" y2="-40.5303" gradientUnits="userSpaceOnUse">
<stop stop-color="#FEFEFD"/>
<stop offset="1" stop-color="#F1F7F2"/>
</linearGradient>
<linearGradient id="paint1_linear_710_17173" x1="203.919" y1="352.476" x2="203.919" y2="235.81" gradientUnits="userSpaceOnUse">
<stop stop-color="#FEFEFD"/>
<stop offset="0.84" stop-color="#F1F7EC"/>
</linearGradient>
<radialGradient id="paint2_radial_710_17173" cx="0" cy="0" r="1" gradientUnits="userSpaceOnUse" gradientTransform="translate(219.293 363.401) scale(138.745 141.922)">
<stop stop-color="#D0DFF3"/>
<stop offset="0.99" stop-color="#D0DFF3"/>
</radialGradient>
<clipPath id="clip0_710_17173">
<rect width="408" height="408" fill="white"/>
</clipPath>
</defs>
</svg>
