<svg width="36" height="35" viewBox="0 0 36 35" fill="none" xmlns="http://www.w3.org/2000/svg">
<rect x="0.729492" y="0.5" width="33.2708" height="32" rx="16" fill="#F2F2F2"/>
<rect x="23.7295" y="22.5" width="12" height="12" rx="6" fill="white"/>
<g clip-path="url(#clip0_4_26672)">
<rect x="25.7295" y="24.501" width="8" height="8" rx="4" fill="#2E7D32"/>
</g>
<path d="M13.7415 18.9785H15.6165C15.5189 19.877 15.2617 20.681 14.845 21.3906C14.4284 22.1003 13.8392 22.6634 13.0775 23.0801C12.3157 23.4902 11.3652 23.6953 10.2259 23.6953C9.39257 23.6953 8.6341 23.5391 7.95051 23.2266C7.27342 22.9141 6.69074 22.4714 6.20246 21.8984C5.71418 21.319 5.33658 20.6257 5.06965 19.8184C4.80923 19.0046 4.67902 18.0996 4.67902 17.1035V15.6875C4.67902 14.6914 4.80923 13.7897 5.06965 12.9824C5.33658 12.1686 5.71744 11.472 6.21223 10.8926C6.71353 10.3132 7.31574 9.86719 8.01887 9.55469C8.72199 9.24219 9.51301 9.08594 10.3919 9.08594C11.4661 9.08594 12.3743 9.28776 13.1165 9.69141C13.8587 10.0951 14.4349 10.6549 14.845 11.3711C15.2617 12.0807 15.5189 12.9043 15.6165 13.8418H13.7415C13.6504 13.1777 13.4811 12.6081 13.2337 12.1328C12.9863 11.651 12.6348 11.2799 12.179 11.0195C11.7233 10.7591 11.1276 10.6289 10.3919 10.6289C9.7604 10.6289 9.20376 10.7493 8.72199 10.9902C8.24673 11.2311 7.84634 11.5729 7.52082 12.0156C7.20181 12.4583 6.96092 12.9889 6.79816 13.6074C6.6354 14.2259 6.55402 14.9128 6.55402 15.668V17.1035C6.55402 17.8001 6.62564 18.4544 6.76887 19.0664C6.91861 19.6784 7.14322 20.2155 7.4427 20.6777C7.74217 21.14 8.12303 21.5046 8.58527 21.7715C9.04751 22.0319 9.59439 22.1621 10.2259 22.1621C11.0267 22.1621 11.6647 22.0352 12.14 21.7812C12.6152 21.5273 12.9733 21.1628 13.2142 20.6875C13.4616 20.2122 13.6374 19.6426 13.7415 18.9785ZM27.612 15.3945V16.9277H19.9167V15.3945H27.612ZM20.2096 9.28125V23.5H18.3249V9.28125H20.2096ZM29.2526 9.28125V23.5H27.3776V9.28125H29.2526Z" fill="#333333"/>
<defs>
<clipPath id="clip0_4_26672">
<rect x="25.7295" y="24.501" width="8" height="8" rx="4" fill="white"/>
</clipPath>
</defs>
</svg>
