<svg width="20" height="21" viewBox="0 0 20 21" fill="none" xmlns="http://www.w3.org/2000/svg">
<path d="M15.8333 13V16.3333H4.16667V13H15.8333ZM16.6667 11.3333H3.33333C2.875 11.3333 2.5 11.7083 2.5 12.1667V17.1667C2.5 17.625 2.875 18 3.33333 18H16.6667C17.125 18 17.5 17.625 17.5 17.1667V12.1667C17.5 11.7083 17.125 11.3333 16.6667 11.3333ZM5.83333 15.9167C5.15 15.9167 4.58333 15.3583 4.58333 14.6667C4.58333 13.975 5.15 13.4167 5.83333 13.4167C6.51667 13.4167 7.08333 13.975 7.08333 14.6667C7.08333 15.3583 6.525 15.9167 5.83333 15.9167ZM15.8333 4.66667V8H4.16667V4.66667H15.8333ZM16.6667 3H3.33333C2.875 3 2.5 3.375 2.5 3.83333V8.83333C2.5 9.29167 2.875 9.66667 3.33333 9.66667H16.6667C17.125 9.66667 17.5 9.29167 17.5 8.83333V3.83333C17.5 3.375 17.125 3 16.6667 3ZM5.83333 7.58333C5.15 7.58333 4.58333 7.025 4.58333 6.33333C4.58333 5.64167 5.15 5.08333 5.83333 5.08333C6.51667 5.08333 7.08333 5.65 7.08333 6.33333C7.08333 7.01667 6.525 7.58333 5.83333 7.58333Z" fill="white"/>
</svg>
