<svg width="41" height="41" viewBox="0 0 41 41" fill="none" xmlns="http://www.w3.org/2000/svg">
<rect x="0.729492" y="0.5" width="40" height="40" rx="20" fill="white"/>
<path d="M20.7291 30.5C21.8291 30.5 22.7291 29.6 22.7291 28.5H18.7291C18.7291 29.6 19.6191 30.5 20.7291 30.5ZM26.7291 24.5V19.5C26.7291 16.43 25.0891 13.86 22.2291 13.18V12.5C22.2291 11.67 21.5591 11 20.7291 11C19.8991 11 19.2291 11.67 19.2291 12.5V13.18C16.3591 13.86 14.7291 16.42 14.7291 19.5V24.5L13.4391 25.79C12.8091 26.42 13.2491 27.5 14.1391 27.5H27.3091C28.1991 27.5 28.6491 26.42 28.0191 25.79L26.7291 24.5Z" fill="black" fill-opacity="0.56"/>
</svg>
