<svg width="24" height="14" viewBox="0 0 24 14" fill="none" xmlns="http://www.w3.org/2000/svg">
<g clip-path="url(#clip0_3779_256)">
<path d="M22.8934 13H1.10661C0.496391 13 0 12.5658 0 12.0321V1.96787C0 1.43416 0.496391 1 1.10661 1H22.8934C23.5036 1 24 1.43416 24 1.96787V12.0321C24 12.5658 23.5036 13 22.8934 13ZM1.10661 1.82558C1.01721 1.82558 0.94392 1.88919 0.94392 1.96787V12.0321C0.94392 12.1108 1.01666 12.1744 1.10661 12.1744H22.8934C22.9833 12.1744 23.0561 12.1108 23.0561 12.0321V1.96787C23.0561 1.88919 22.9833 1.82558 22.8934 1.82558H1.10661Z" fill="#000080"/>
<path fill-rule="evenodd" clip-rule="evenodd" d="M2.94836 12.5872V1.74591H4.00333V12.5872H2.94836Z" fill="#000080"/>
<path d="M8.79014 9.11348C10.9978 9.11348 12.7879 7.5478 12.7879 5.61692C12.7879 3.68604 10.9978 2.12036 8.79014 2.12036C6.58248 2.12036 4.79236 3.68604 4.79236 5.61692C4.79458 7.54731 6.58303 9.11154 8.79014 9.11348ZM8.79014 2.89737C10.5075 2.89737 11.8995 4.11486 11.8995 5.61692C11.8995 7.11899 10.5075 8.33647 8.79014 8.33647C7.07276 8.33647 5.68075 7.11899 5.68075 5.61692C5.68297 4.11583 7.07387 2.89932 8.79014 2.89737Z" fill="#000080"/>
<path d="M4.79236 9.8905H22.5603V10.6675H4.79236V9.8905Z" fill="#000080"/>
<path d="M14.1205 8.33649H22.116C22.3614 8.33649 22.5602 8.51034 22.5602 8.72499C22.5602 8.93964 22.3614 9.1135 22.116 9.1135H14.1205C13.875 9.1135 13.6763 8.93964 13.6763 8.72499C13.6763 8.51034 13.875 8.33649 14.1205 8.33649Z" fill="#000080"/>
<path d="M14.1205 6.78241H22.116C22.3614 6.78241 22.5602 6.95627 22.5602 7.17092C22.5602 7.38557 22.3614 7.55942 22.116 7.55942H14.1205C13.875 7.55942 13.6763 7.38557 13.6763 7.17092C13.6763 6.95627 13.875 6.78241 14.1205 6.78241Z" fill="#000080"/>
<path d="M18.1182 4.93172L18.3637 4.50436C18.3964 4.46017 18.4636 4.44803 18.5141 4.47668C18.5408 4.49173 18.558 4.51602 18.5624 4.54321V4.76903C18.5624 5.31148 18.9594 5.80343 19.5541 5.95592C20.0538 6.08413 20.5763 5.95883 20.9289 5.65046L21.4486 5.1959C21.4997 5.15122 21.4997 5.07838 21.4486 5.0337L21.0377 4.67433C20.9689 4.61411 20.8578 4.61411 20.789 4.67433L20.3009 5.1012C20.0877 5.28817 19.7285 5.26972 19.543 5.04633C19.4797 4.9696 19.4508 4.87538 19.4508 4.7802C19.4508 4.72387 19.4508 4.64714 19.4508 4.56798C19.4508 4.12605 19.0849 3.73609 18.5835 3.68121C18.1599 3.63459 17.7562 3.82787 17.5697 4.1547L17.3242 4.58449C17.0994 4.98028 16.6374 5.2299 16.1327 5.22844H15.5774C15.5091 5.22844 15.4542 5.27652 15.4542 5.33625V5.8991C15.4542 5.95786 15.5086 6.00545 15.5758 6.00545H16.1327C16.9744 6.00788 17.7451 5.59121 18.1193 4.93172H18.1182Z" fill="#000080"/>
</g>
<defs>
<clipPath id="clip0_3779_256">
<rect width="24" height="12" fill="white" transform="translate(0 1)"/>
</clipPath>
</defs>
</svg>
