<svg width="24" height="24" viewBox="0 0 24 24" fill="none" xmlns="http://www.w3.org/2000/svg">
<path fill-rule="evenodd" clip-rule="evenodd" d="M7 7.75C5.20507 7.75 3.75 9.20507 3.75 11V17.25H6.42857V18.75H3.6C2.85442 18.75 2.25 18.1456 2.25 17.4V11C2.25 8.37665 4.37665 6.25 7 6.25H17C19.6234 6.25 21.75 8.37665 21.75 11V17.4C21.75 18.1456 21.1456 18.75 20.4 18.75H17.5714V17.25H20.25V11C20.25 9.20507 18.7949 7.75 17 7.75H7Z" fill="#176197"/>
<path fill-rule="evenodd" clip-rule="evenodd" d="M8.75 3.75V7H7.25V3.6C7.25 2.85442 7.85442 2.25 8.6 2.25H15.4C16.1456 2.25 16.75 2.85442 16.75 3.6V7H15.25V3.75H8.75Z" fill="#176197"/>
<path fill-rule="evenodd" clip-rule="evenodd" d="M7.65059 14.75L6.86488 20.25H17.1354L16.3497 14.75H7.65059ZM17.1598 20.4212C17.1598 20.4211 17.1598 20.4213 17.1598 20.4212V20.4212ZM6.18407 14.4091C6.27908 13.744 6.84867 13.25 7.5205 13.25H16.4797C17.1516 13.25 17.7212 13.744 17.8162 14.4091L18.6447 20.2091C18.7609 21.0224 18.1299 21.75 17.3083 21.75H6.69193C5.87039 21.75 5.23931 21.0224 5.3555 20.2091L6.18407 14.4091Z" fill="#176197"/>
<path fill-rule="evenodd" clip-rule="evenodd" d="M17.5117 9.44144C17.8196 9.71853 17.8446 10.1927 17.5675 10.5006L17.5575 10.5117C17.2804 10.8196 16.8062 10.8446 16.4983 10.5675C16.1904 10.2904 16.1654 9.81618 16.4425 9.5083L16.4525 9.49718C16.7296 9.1893 17.2038 9.16434 17.5117 9.44144Z" fill="#176197"/>
</svg>
