<svg width="36" height="36" viewBox="0 0 36 36" fill="none" xmlns="http://www.w3.org/2000/svg">
<path opacity="0.3" d="M18.0004 13.4165C14.8421 13.4165 12.0254 15.1915 10.6504 17.9998C12.0254 20.8082 14.8337 22.5832 18.0004 22.5832C21.1671 22.5832 23.9754 20.8082 25.3504 17.9998C23.9754 15.1915 21.1587 13.4165 18.0004 13.4165ZM18.0004 21.7498C15.9337 21.7498 14.2504 20.0665 14.2504 17.9998C14.2504 15.9332 15.9337 14.2498 18.0004 14.2498C20.0671 14.2498 21.7504 15.9332 21.7504 17.9998C21.7504 20.0665 20.0671 21.7498 18.0004 21.7498Z" fill="black" fill-opacity="0.54"/>
<path d="M17.9997 11.75C13.833 11.75 10.2747 14.3417 8.83301 18C10.2747 21.6583 13.833 24.25 17.9997 24.25C22.1663 24.25 25.7247 21.6583 27.1663 18C25.7247 14.3417 22.1663 11.75 17.9997 11.75ZM17.9997 22.5833C14.8413 22.5833 12.0247 20.8083 10.6497 18C12.0247 15.1917 14.8413 13.4167 17.9997 13.4167C21.158 13.4167 23.9747 15.1917 25.3497 18C23.9747 20.8083 21.158 22.5833 17.9997 22.5833ZM17.9997 14.25C15.933 14.25 14.2497 15.9333 14.2497 18C14.2497 20.0667 15.933 21.75 17.9997 21.75C20.0663 21.75 21.7497 20.0667 21.7497 18C21.7497 15.9333 20.0663 14.25 17.9997 14.25ZM17.9997 20.0833C16.8497 20.0833 15.9163 19.15 15.9163 18C15.9163 16.85 16.8497 15.9167 17.9997 15.9167C19.1497 15.9167 20.083 16.85 20.083 18C20.083 19.15 19.1497 20.0833 17.9997 20.0833Z" fill="black" fill-opacity="0.54"/>
</svg>
