<svg width="65" height="66" viewBox="0 0 65 66" fill="none" xmlns="http://www.w3.org/2000/svg">
<path d="M40.405 41.0529V46.4402H61.9543V41.0529M40.3242 31.9214C40.0009 28.3388 36.6069 24.8101 32.324 24.8909C27.7448 24.9717 24.243 28.3927 24.243 32.9719C24.243 37.5511 27.7448 40.8913 32.324 41.0529C33.3476 41.0529 34.3981 40.8374 35.3948 40.4334C36.1221 37.4703 37.3342 34.6689 40.3242 31.9214ZM35.0177 43.7466H18.8557C18.8557 40.7835 16.4583 38.3592 13.4684 38.3592V27.5846C16.4583 27.5846 18.8557 25.1872 18.8557 22.1973H45.7923C45.7923 25.1872 48.2166 27.5846 51.1796 27.5846V27.7462C52.9844 27.7462 54.7892 28.0694 56.567 28.662V16.8099H8.08105V49.1339H35.8796C35.287 47.3291 35.0177 45.5244 35.0177 43.7466Z" fill="url(#paint0_linear_2332_3407)"/>
<defs>
<linearGradient id="paint0_linear_2332_3407" x1="-2.69359" y1="12.0212" x2="13.3129" y2="56.8788" gradientUnits="userSpaceOnUse">
<stop offset="0.27" stop-color="#42A0D9"/>
<stop offset="1" stop-color="#F20BAF"/>
</linearGradient>
</defs>
</svg>
