<svg width="66" height="65" viewBox="0 0 66 65" fill="none" xmlns="http://www.w3.org/2000/svg">
<g clip-path="url(#clip0_2332_3402)">
<path d="M30.5844 21.8453C30.5844 27.7983 25.7627 32.6199 19.8097 32.6199C13.8567 32.6199 9.03509 27.7983 9.03509 21.8453C9.03509 15.8923 13.8567 11.0706 19.8097 11.0706C25.7627 11.0706 30.5844 15.8923 30.5844 21.8453ZM30.5844 39.9467V54.1692H0.954102V48.7819C0.954102 42.8289 9.38526 38.0072 19.8097 38.0072C23.8502 38.0072 27.5405 38.7345 30.5844 39.9467ZM65.602 54.1692H35.9717V8.37695H65.602V54.1692ZM44.0527 31.2731C44.0527 27.5558 47.0696 24.5389 50.7868 24.5389C54.5041 24.5389 57.521 27.5558 57.521 31.2731C57.521 34.9903 54.5041 38.0072 50.7868 38.0072C47.0696 38.0072 44.0527 34.9903 44.0527 31.2731ZM60.2147 19.1516C57.2516 19.1516 54.8273 16.7542 54.8273 13.7643H46.7464C46.7464 16.7542 44.349 19.1516 41.359 19.1516V43.3946C44.349 43.3946 46.7464 45.8189 46.7464 48.7819H54.8273C54.8273 45.8189 57.2516 43.3946 60.2147 43.3946V19.1516Z" fill="url(#paint0_linear_2332_3402)"/>
</g>
<defs>
<linearGradient id="paint0_linear_2332_3402" x1="33.278" y1="8.37695" x2="33.278" y2="54.1692" gradientUnits="userSpaceOnUse">
<stop stop-color="#FFDF7B"/>
<stop offset="1" stop-color="#FCBB0E"/>
</linearGradient>
<clipPath id="clip0_2332_3402">
<rect width="64.6479" height="64.6479" fill="white" transform="translate(0.954102 0.295898)"/>
</clipPath>
</defs>
</svg>
