<svg width="65" height="65" viewBox="0 0 65 65" fill="none" xmlns="http://www.w3.org/2000/svg">
<path d="M41.7518 32.3239C48.486 32.3239 53.8733 37.7112 53.8733 44.4454C53.8733 46.8158 53.1999 49.0515 52.0147 50.9102L60.3112 59.2605L56.567 63.0047L48.1627 54.7352C46.3041 55.8934 44.0953 56.5668 41.7518 56.5668C35.0177 56.5668 29.6304 51.1795 29.6304 44.4454C29.6304 37.7112 35.0177 32.3239 41.7518 32.3239ZM41.7518 37.7112C39.9658 37.7112 38.253 38.4207 36.9901 39.6836C35.7272 40.9465 35.0177 42.6594 35.0177 44.4454C35.0177 46.2314 35.7272 47.9442 36.9901 49.2071C38.253 50.47 39.9658 51.1795 41.7518 51.1795C43.5378 51.1795 45.2507 50.47 46.5136 49.2071C47.7765 47.9442 48.486 46.2314 48.486 44.4454C48.486 42.6594 47.7765 40.9465 46.5136 39.6836C45.2507 38.4207 43.5378 37.7112 41.7518 37.7112ZM18.8557 40.4049V45.7922H24.243C24.6201 49.9674 26.398 53.7116 29.1186 56.5668H13.4684C10.4784 56.5668 8.08105 54.1426 8.08105 51.1795V13.4683C8.08105 10.4783 10.4784 8.08093 13.4684 8.08093H51.1796C52.6085 8.08093 53.9787 8.64852 54.9891 9.65884C55.9994 10.6692 56.567 12.0394 56.567 13.4683V35.0984C53.4693 30.1959 48.0011 26.9366 41.7518 26.9366C38.3309 26.9366 35.1254 27.9332 32.4318 29.6302H18.8557V35.0176H26.9367C25.967 36.6337 25.1589 38.4654 24.701 40.4049H18.8557ZM45.7923 24.2429V18.8556H18.8557V24.2429H45.7923Z" fill="url(#paint0_linear_2332_3425)"/>
<defs>
<linearGradient id="paint0_linear_2332_3425" x1="34.1961" y1="8.08093" x2="34.1961" y2="63.0047" gradientUnits="userSpaceOnUse">
<stop stop-color="#FF9900"/>
<stop offset="1" stop-color="#FF7E00"/>
</linearGradient>
</defs>
</svg>
