<svg width="58" height="60" viewBox="0 0 58 60" fill="none" xmlns="http://www.w3.org/2000/svg">
<path d="M45.9166 16.3081C45.9166 13.6039 43.7416 11.3914 41.0833 11.3914H31.4166C31.4166 7.99894 28.7099 5.24561 25.3749 5.24561C22.0399 5.24561 19.3333 7.99894 19.3333 11.3914H9.69075C7.03242 11.3914 4.85742 13.6039 4.85742 16.3081V25.6498C11.3583 25.6498 12.0833 30.9598 12.0833 32.2873C12.0833 33.6148 11.3824 38.9248 4.83325 38.9248V48.2664C4.83325 50.9706 7.00825 53.1831 9.66659 53.1831H18.8499C18.8499 47.8731 22.1608 46.3489 24.1666 45.9556V23.0931L45.9166 34.1556V16.3081Z" fill="url(#paint0_linear_2332_3447)"/>
<path d="M28.9999 31.0581V40.8914L38.6666 43.3498L28.9999 45.8081V55.6414L53.1666 43.3498L28.9999 31.0581Z" fill="url(#paint1_linear_2332_3447)"/>
<defs>
<linearGradient id="paint0_linear_2332_3447" x1="28.9999" y1="5.24561" x2="28.9999" y2="55.6414" gradientUnits="userSpaceOnUse">
<stop stop-color="#6847E8"/>
<stop offset="1" stop-color="#308BE8"/>
</linearGradient>
<linearGradient id="paint1_linear_2332_3447" x1="28.9999" y1="5.24561" x2="28.9999" y2="55.6414" gradientUnits="userSpaceOnUse">
<stop stop-color="#6847E8"/>
<stop offset="1" stop-color="#308BE8"/>
</linearGradient>
</defs>
</svg>
